<svg xmlns="http://www.w3.org/2000/svg" viewBox="0 0 64 64" role="img" aria-label="Paint Brush">
  <defs>
    <linearGradient id="bg" x1="12%" y1="0%" x2="88%" y2="100%">
      <stop offset="0%" stop-color="#6a3093"/>
      <stop offset="52%" stop-color="#a044ff"/>
      <stop offset="100%" stop-color="#ff6b9d"/>
    </linearGradient>
    <linearGradient id="brush" x1="0%" y1="0%" x2="100%" y2="100%">
      <stop offset="0%" stop-color="#fff7ed"/>
      <stop offset="100%" stop-color="#fde68a"/>
    </linearGradient>
    <linearGradient id="tip" x1="0%" y1="0%" x2="0%" y2="100%">
      <stop offset="0%" stop-color="#fb7185"/>
      <stop offset="100%" stop-color="#c084fc"/>
    </linearGradient>
  </defs>
  <rect width="64" height="64" rx="16" fill="url(#bg)"/>
  <g transform="translate(32 32) rotate(-38) translate(-32 -32)">
    <rect x="29" y="12" width="6" height="26" rx="3" fill="url(#brush)"/>
    <path fill="#f472b6" d="M27 36h10l2 6H25l2-6z"/>
    <path fill="url(#tip)" d="M25.5 42c1.2 6.2 3.4 10.5 6.5 12.8 3.1-2.3 5.3-6.6 6.5-12.8H25.5z"/>
    <circle cx="32" cy="16" r="3.2" fill="#fff" opacity="0.9"/>
  </g>
  <path fill="#fde68a" opacity="0.9" d="M46 18c2.8 0 4.2 2.4 4.2 4.8S48.8 28 46 29.5C43.2 28 41.8 25.2 41.8 22.8S43.2 18 46 18z"/>
</svg>
